<svg viewBox="0 0 25 25" xmlns="http://www.w3.org/2000/svg"><style>path {fill: #e3000f;}</style><g id="Certificate"><path d="m19.5 4h-14a.5.5 0 0 0 -.5.5v14a.5.5 0 0 0 .5.5h2a.5.5 0 0 0 0-1h-1.5v-13h13v13h-1.5a.5.5 0 0 0 0 1h2a.5.5 0 0 0 .5-.5v-14a.5.5 0 0 0 -.5-.5z"/><path d="m12.5 13a1.5 1.5 0 1 0 1.5 1.5 1.5 1.5 0 0 0 -1.5-1.5zm0 2a.5.5 0 1 1 .5-.5.5.5 0 0 1 -.5.5z"/><path d="m12.5 11a3.5 3.5 0 0 0 -3.5 3.5v8a.5.5 0 0 0 .78.42l2.72-1.82 2.72 1.82a.5.5 0 0 0 .28.08.5.5 0 0 0 .5-.5v-8a3.5 3.5 0 0 0 -3.5-3.5zm2.5 7.5v3.07l-2.22-1.48a.5.5 0 0 0 -.55 0l-2.23 1.48v-7.07a2.5 2.5 0 0 1 5 0z"/><path d="m8.5 8h8a.5.5 0 0 0 0-1h-8a.5.5 0 0 0 0 1z"/><path d="m16.5 9h-8a.5.5 0 0 0 0 1h8a.5.5 0 0 0 0-1z"/></g></svg>