<svg enable-background="new 0 0 520 520" viewBox="0 0 520 520" xmlns="http://www.w3.org/2000/svg"><style>path {fill: #e3000f;}</style><g id="_x38_76_x2C__Alarm_x2C__Clock_x2C__Date_x2C__Day_x2C__Operation"><g><path d="m400 250h-20c-5.522 0-10 4.477-10 10 0 5.522 4.478 10 10 10h20c5.522 0 10-4.478 10-10 0-5.523-4.478-10-10-10z"/><path d="m289 237-33.061 24.796-23.867-23.867c-3.905-3.905-10.237-3.905-14.143 0-3.905 3.905-3.905 10.237 0 14.143l30 30c3.524 3.524 9.095 3.91 13.071.929l40-30c4.418-3.313 5.313-9.582 2-14-3.313-4.419-9.581-5.315-14-2.001z"/><path d="m260 35c-124.351 0-225 100.633-225 225 0 124.351 100.633 225 225 225 124.35 0 225-100.632 225-225 0-124.35-100.633-225-225-225zm0 430c-113.038 0-205-91.963-205-205 0-113.038 91.962-205 205-205 113.037 0 205 91.962 205 205 0 113.037-91.963 205-205 205z"/><path d="m260 75c-102.009 0-185 82.991-185 185 0 102.01 82.991 185 185 185 102.01 0 185-82.99 185-185 0-102.009-82.99-185-185-185zm0 350c-90.981 0-165-74.019-165-165s74.019-165 165-165 165 74.019 165 165-74.019 165-165 165z"/><path d="m255 145c5.522 0 10-4.477 10-10v-20c0-5.523-4.478-10-10-10-5.523 0-10 4.477-10 10v20c0 5.523 4.478 10 10 10z"/><path d="m255 375c-5.523 0-10 4.478-10 10v20c0 5.522 4.477 10 10 10 5.522 0 10-4.478 10-10v-20c0-5.522-4.478-10-10-10z"/><path d="m350.459 150.399-14.142 14.142c-3.905 3.905-3.905 10.237 0 14.142 3.906 3.905 10.236 3.905 14.143 0l14.142-14.142c3.905-3.905 3.905-10.237 0-14.142-3.907-3.906-10.237-3.905-14.143 0z"/><path d="m159.542 341.317-14.142 14.142c-3.905 3.905-3.906 10.237 0 14.143 3.906 3.904 10.237 3.905 14.142 0l14.142-14.142c3.905-3.905 3.906-10.237 0-14.143-3.906-3.903-10.237-3.904-14.142 0z"/><path d="m130 250h-20c-5.523 0-10 4.477-10 10 0 5.522 4.477 10 10 10h20c5.523 0 10-4.478 10-10 0-5.523-4.477-10-10-10z"/><path d="m350.46 341.317c-3.906-3.904-10.236-3.904-14.143 0-3.905 3.905-3.905 10.237 0 14.143l14.142 14.142c3.907 3.905 10.236 3.904 14.143 0 3.905-3.905 3.905-10.237 0-14.143z"/><path d="m159.541 178.683c3.904 3.904 10.237 3.905 14.143 0 3.905-3.905 3.905-10.237 0-14.143l-14.142-14.142c-3.905-3.905-10.237-3.905-14.143 0-3.905 3.905-3.905 10.237 0 14.143z"/></g></g></svg>