<svg viewBox="0 -47 454.00016 454" xmlns="http://www.w3.org/2000/svg"><style>path {fill: rgba(198, 198, 198, 0.9);}</style><path d="m445.984375.00390625h-318.957031c-2.09375-.06250005-4.125.72265575-5.636719 2.17578175-1.511719 1.457031-2.371094 3.457031-2.390625 5.554687v51.269531h-110.984375c-4.464844.109375-8.0273438 3.765625-8.015625 8.234375v285.035157c-.0195312 3.011718 1.664062 5.773437 4.347656 7.136718 2.683594 1.363282 5.90625 1.097656 8.328125-.691406l73.484375-52.714844h240.8125c2.109375.027344 4.144532-.789062 5.652344-2.269531 1.507812-1.476563 2.363281-3.5 2.375-5.609375v-51.121094h32.839844l73.484375 52.460938c1.367187.945312 2.996093 1.433594 4.660156 1.398437 4.433594-.066406 7.996094-3.667969 8.015625-8.101562v-285.027344c-.015625-2.097656-.875-4.097656-2.382812-5.554687-1.507813-1.453126-3.539063-2.2382818-5.632813-2.17578175zm-126.984375 289.99999975h-235.410156c-1.679688.019532-3.3125.566406-4.667969 1.554688l-62.921875 45.144531v-261.699219h103v163.613282c-.015625 4.5 3.53125 8.207031 8.027344 8.386718h191.972656zm119-12.808594-62.921875-44.890624c-1.378906-.914063-3.015625-1.371094-4.667969-1.300782h-235.410156v-215h303zm0 0"/><path d="m217.511719 186.003906h17.753906c4.214844-.015625 7.699219-3.28125 7.984375-7.484375l4.054688-59.199219c.148437-2.179687-.625-4.316406-2.136719-5.890624-1.523438-1.589844-3.644531-2.46875-5.847657-2.425782h-6.320312v-12.347656c0-27.0625 21.9375-49 49-49s49 21.9375 49 49v12.347656h-6.320312c-2.203126-.058594-4.324219.816406-5.84375 2.410156-1.519532 1.589844-2.296876 3.75-2.140626 5.949219l4.058594 59.1875c.285156 4.195313 3.773438 7.453125 7.980469 7.453125h2.265625v5.523438c0 4.964844-3.554688 9.476562-8.519531 9.476562h-35.71875c-4.417969 0-8 3.582032-8 8 0 4.417969 3.582031 8 8 8h35.71875c13.789062 0 24.519531-11.6875 24.519531-25.476562v-5.636719c5.066406-.226563 9.875-2.3125 13.5-5.859375 3.828125-3.761719 5.996094-8.890625 6.027344-14.257812 0-.375.050781-.75.03125-1.128907 0-.054687.023437-.109375.019531-.164062l-2.769531-34.78125c-.640625-9.34375-7.578125-17.042969-16.808594-18.644531v-12.398438c0-35.898438-29.101562-65-65-65s-65 29.101562-65 65v12.398438c-9.234375 1.597656-16.183594 9.296874-16.828125 18.648437l-2.738281 34.78125c0 .054687-.03125.109375-.035156.167969-.019532.375-.042969.75-.042969 1.125-.007813 11.144531 9.007812 20.195312 20.15625 20.226562zm130.449219-55.144531 2.691406 34.746094v.167969c.003906 1.113281-.4375 2.1875-1.21875 2.976562-.777344.792969-1.835938 1.242188-2.945313 1.253906h-10.289062l-2.957031-43h10.542968c2.183594-.058594 4.023438 1.625 4.160156 3.808594.007813.058594.011719-.007812.015626.046875zm-134.613282 34.742187 2.691406-34.746093c0-.054688.007813.011719.011719-.046875.136719-2.179688 1.976563-3.863282 4.160157-3.808594h10.542968l-2.953125 43.003906h-10.289062c-2.308594-.03125-4.164063-1.90625-4.164063-4.214844 0-.054687 0-.128906 0-.1875zm0 0"/></svg>