<svg height="494pt" viewBox="-49 0 494 494.09169" width="494pt" xmlns="http://www.w3.org/2000/svg"><path d="m306.832031 42.089844c-1.109375-1.210938-2.660156-1.929688-4.304687-2h-107.425782c-.875-.882813-1.355468-2.085938-1.332031-3.328125l.136719-4.222657c.15625-5.332031-2.214844-10.425781-6.394531-13.742187-4.175781-3.316406-9.675781-4.46875-14.832031-3.105469l-4.164063 1.101563c-2.339844.625-4.789063-.550781-5.769531-2.769531l-1.757813-3.957032c-2.167969-4.882812-6.515625-8.457031-11.722656-9.640625-5.210937-1.183593-10.671875.15625-14.742187 3.617188l-3.277344 2.785156c-1.84375 1.578125-4.5625 1.578125-6.40625 0l-3.277344-2.789063c-4.066406-3.460937-9.53125-4.800781-14.738281-3.617187-5.210938 1.1875-9.554688 4.761719-11.722657 9.644531l-1.753906 3.960938c-.980468 2.21875-3.429687 3.394531-5.773437 2.773437l-4.15625-1.089843c-5.171875-1.355469-10.675781-.191407-14.855469 3.140624-4.175781 3.332032-6.539062 8.4375-6.375 13.777344l.136719 4.3125c.082031 2.429688-1.617188 4.554688-4 5.007813l-4.191407.816406c-5.242187 1.019531-9.699218 4.453125-12.023437 9.261719-2.320313 4.8125-2.238281 10.4375.222656 15.179687l1.984375 3.816407c1.125 2.148437.519532 4.789062-1.421875 6.234374l-3.476562 2.601563c-4.265625 3.195313-6.78125 8.21875-6.785157 13.550781-.003906 5.332032 2.503907 10.355469 6.769532 13.558594l3.5 2.816406c.425781.320313.773437.300782 1.066406 1.300782h-7.441406c-19.851563.003906-36.480469 15.785156-36.480469 35.632812v311.464844c0 19.851562 16.628906 35.90625 36.480469 35.90625h233.039062c19.847656 0 36.480469-16.054688 36.480469-35.90625v-34.09375h53.519531c19.847656 0 36.480469-16.320313 36.480469-36.171875v-251.800781c-.089844-1.617188-.78125-3.136719-1.9375-4.269532zm1.214844 19.160156 67.332031 68.839844h-56.550781c-5.683594 0-10.78125-4.59375-10.78125-10.273438zm-261.429687 28.21875 3.472656-2.601562c6.660156-4.957032 8.730468-14.019532 4.878906-21.375l-1.984375-3.820313c-.71875-1.382813-.742187-3.023437-.066406-4.425781.679687-1.402344 1.980469-2.40625 3.511719-2.703125l4.1875-.816407c8.171874-1.5625 13.988281-8.84375 13.699218-17.160156l-.132812-4.308594c-.050782-1.558593.640625-3.050781 1.859375-4.023437 1.21875-.96875 2.824219-1.308594 4.332031-.914063l4.160156 1.089844c8.035156 2.132813 16.425782-1.90625 19.777344-9.511718l1.757812-3.960938c.632813-1.425781 1.902344-2.46875 3.421876-2.8125 1.519531-.347656 3.113281.042969 4.300781 1.054688l3.273437 2.785156c6.320313 5.417968 15.644532 5.417968 21.960938 0l3.277344-2.785156c1.1875-1.011719 2.78125-1.402344 4.300781-1.054688 1.519531.34375 2.785156 1.386719 3.417969 2.8125l1.757812 3.960938c3.351562 7.605468 11.742188 11.640624 19.777344 9.511718l4.160156-1.089844c1.507812-.394531 3.117188-.054687 4.335938.914063 1.21875.972656 1.90625 2.464844 1.859374 4.019531l-.136718 4.3125c-.285156 8.316406 5.527344 15.597656 13.699218 17.160156l4.191407.816407c1.53125.296875 2.828125 1.300781 3.507812 2.703125.675781 1.402344.652344 3.042968-.0625 4.425781l-1.992187 3.820313c-3.847656 7.355468-1.777344 16.414062 4.878906 21.371093l3.476562 2.597657c1.246094.933593 1.976563 2.398437 1.976563 3.957031 0 1.554687-.730469 3.019531-1.976563 3.953125l-3.5 2.632812c-6.644531 4.960938-8.703124 14.011719-4.859374 21.359375l1.992187 3.828125c.714844 1.382813.742187 3.027344.0625 4.429688s-1.976563 2.40625-3.507813 2.703125l-4.191406.816406c-8.171875 1.558594-13.988281 8.84375-13.699218 17.160156l.136718 4.308594c.046875 1.558594-.640625 3.050781-1.859375 4.019531-1.21875.972656-2.828125 1.3125-4.335937.917969l-4.160156-1.089844c-8.035157-2.128906-16.421876 1.90625-19.777344 9.511719l-1.757813 3.957031c-.632812 1.425781-1.898437 2.46875-3.417969 2.816407-1.519531.34375-3.113281-.046876-4.300781-1.054688l-3.277343-2.789062c-6.320313-5.414063-15.640626-5.414063-21.960938 0l-3.273438 2.789062c-1.1875 1.007812-2.78125 1.398438-4.300781 1.054688-1.519531-.347657-2.789062-1.390626-3.421875-2.8125l-1.757812-3.960938c-2.695313-6.121094-8.75-10.070312-15.4375-10.074219-1.464844 0-2.921875.191407-4.339844.5625l-4.160156 1.089844c-1.507813.394531-3.113282.054687-4.332032-.914063-1.21875-.972656-1.910156-2.464843-1.859374-4.023437l.132812-4.308594c.289062-8.316406-5.527344-15.601562-13.699219-17.160156l-4.1875-.816406c-1.53125-.296875-2.832031-1.300781-3.511719-2.703125-.675781-1.402344-.652343-3.046875.066407-4.429688l1.992187-3.828125c3.839844-7.347656 1.78125-16.398437-4.863281-21.359375l-3.503906-2.632812c-1.246094-.933594-1.976563-2.402344-1.972657-3.957032 0-1.554687.734376-3.019531 1.980469-3.953124zm35.429687 168.453125v-86.449219c.464844-.136718.941406-.238281 1.421875-.3125l4.132812-1.089844c2.339844-.625 4.785157.554688 5.753907 2.773438l1.753906 3.960938c2.148437 4.898437 6.5 8.480468 11.71875 9.644531 1.253906.285156 2.535156.429687 3.816406.429687 4.007813 0 7.882813-1.4375 10.921875-4.046875l3.277344-2.789062c1.84375-1.578125 4.5625-1.578125 6.40625 0l3.273438 2.789062c4.070312 3.460938 9.535156 4.800781 14.742187 3.617188 5.210937-1.1875 9.554687-4.761719 11.722656-9.644531l1.757813-3.960938c.976562-2.21875 3.425781-3.398438 5.769531-2.773438l4.109375 1.089844c.480469.074219.953125.175782 1.421875.3125v86.449219l-42.917969-26.34375c-1.894531-1.175781-4.296875-1.175781-6.191406 0zm212 200.261719c0 13.234375-11.25 23.90625-24.480469 23.90625h-233.039062c-13.234375 0-24.480469-10.671875-24.480469-23.90625v-311.464844c0-13.226562 11.246094-23.628906 24.480469-23.628906h4.582031c-1.195313 3.964844-.839844 8.230468 1 11.9375 2.308594 4.804687 6.777344 8.214844 12.019531 9.175781l4.191406.765625c2.382813.445312 4.082032 2.5625 4 4.984375l-.132812 4.300781c-.171875 5.351563 2.214844 10.464844 6.425781 13.773438.445313.351562.429688.671875 1.429688.976562v99.632813c-.019531 2.164062 1.136719 4.167969 3.015625 5.238281 1.800781 1.058594 4.046875 1.011719 5.800781-.121094l11.1875-7.019531v121.183594c0 19.851562 16.628906 36.171875 36.480469 36.171875h167.519531zm65.519531-46.09375h-233.039062c-13.234375 0-24.480469-10.9375-24.480469-24.171875v-128.542969l25.757813-15.640625 49.089843 30.019531c.96875.582032 2.074219.886719 3.203125.886719 1.015625 0 2.019532-.265625 2.90625-.765625 1.886719-1.066406 3.050782-3.070312 3.042969-5.234375v-12.550781h148.300781c3.3125 0 6-2.683594 6-6 0-3.3125-2.6875-6-6-6h-148.300781v-44h73c3.3125 0 6-2.683594 6-6 0-3.3125-2.6875-6-6-6h-73v-19.085938c1-.296875.984375-.628906 1.429687-.984375 4.203126-3.3125 6.582032-8.429687 6.398438-13.777343l-.121094-4.3125c-.078125-2.425782 1.617188-4.542969 4-5l4.195313-.816407c5.242187-1.019531 9.699219-4.453125 12.023437-9.265625 2.320313-4.808594 2.238282-10.433594-.222656-15.175781l-1.992188-3.832031c-1.121093-2.144532-.519531-4.78125 1.417969-6.230469l3.5-2.632813c4.265625-3.199218 6.773438-8.222656 6.769531-13.558593 0-5.332031-2.515624-10.351563-6.785156-13.550781l-3.476562-2.597657c-1.941406-1.445312-2.542969-4.089843-1.421875-6.234375l1.984375-4c2.417968-4.652344 2.574218-10.160156.421875-14.945312h81.878906v67.726562c0 12.300782 10.484375 22.273438 22.78125 22.273438h65.21875v245.828125c0 13.234375-11.25 24.171875-24.480469 24.171875zm0 0"/><path d="m334.347656 304.089844h-187.621094c-3.3125 0-6 2.6875-6 6 0 3.316406 2.6875 6 6 6h187.621094c3.3125 0 6-2.683594 6-6 0-3.3125-2.6875-6-6-6zm0 0"/><path d="m128.046875 153.675781c33.269531 0 60.238281-26.96875 60.238281-60.238281s-26.96875-60.242188-60.238281-60.242188-60.238281 26.972657-60.238281 60.242188c.035156 33.25 26.984375 60.199219 60.238281 60.238281zm0-108.480469c26.640625 0 48.238281 21.597657 48.238281 48.238282 0 26.644531-21.597656 48.242187-48.238281 48.242187s-48.238281-21.597656-48.238281-48.238281c.027344-26.628906 21.609375-48.210938 48.238281-48.242188zm0 0"/><path d="m128.046875 121.238281c15.351563 0 27.800781-12.445312 27.800781-27.796875 0-15.355468-12.449218-27.800781-27.800781-27.800781-15.355469 0-27.800781 12.445313-27.800781 27.800781.019531 15.34375 12.453125 27.777344 27.800781 27.796875zm0-43.605469c8.726563 0 15.800781 7.074219 15.800781 15.800782 0 8.726562-7.074218 15.800781-15.800781 15.800781s-15.800781-7.074219-15.800781-15.800781c.011718-8.722656 7.078125-15.789063 15.800781-15.800782zm0 0"/></svg>