<?xml version="1.0" encoding="iso-8859-1"?>
<!-- Generator: Adobe Illustrator 19.0.0, SVG Export Plug-In . SVG Version: 6.00 Build 0)  -->
<svg version="1.1" id="Capa_1" xmlns="http://www.w3.org/2000/svg" xmlns:xlink="http://www.w3.org/1999/xlink" x="0px" y="0px"
	 viewBox="0 0 512.001 512.001" style="enable-background:new 0 0 512.001 512.001;" xml:space="preserve">
<g>
	<g>
		<path d="M413.985,24.607L392.663,2.313C391.25,0.836,389.295,0,387.25,0c-2.045,0-4,0.836-5.413,2.313l-16.462,17.213
			L348.913,2.313C347.5,0.836,345.545,0,343.5,0c-2.045,0-4,0.836-5.413,2.313l-16.462,17.213L305.164,2.313
			C303.751,0.836,301.795,0,299.751,0s-4,0.836-5.413,2.313l-16.462,17.213L261.414,2.313C260.001,0.836,258.046,0,256.001,0
			c-2.045,0-4,0.836-5.413,2.313l-16.462,17.213L217.664,2.313C216.251,0.836,214.296,0,212.251,0s-4,0.836-5.413,2.313
			l-16.462,17.213L173.915,2.313C172.502,0.836,170.546,0,168.502,0c-2.045,0-4,0.836-5.413,2.313l-16.462,17.213L130.165,2.313
			C128.752,0.836,126.797,0,124.751,0c-2.045,0-4,0.836-5.413,2.313L98.017,24.607c-2.204,1.304-3.682,3.705-3.682,6.451v301.838
			c0,4.137,3.353,7.49,7.49,7.49c4.137,0,7.49-3.353,7.49-7.49V34.467l15.436-16.14l16.462,17.213
			c1.413,1.477,3.369,2.313,5.413,2.313s4-0.836,5.413-2.313l16.462-17.213l16.462,17.213c1.413,1.477,3.369,2.313,5.413,2.313
			s4-0.836,5.413-2.313l16.462-17.213l16.462,17.213c1.413,1.477,3.369,2.313,5.413,2.313s4-0.836,5.413-2.313l16.462-17.213
			l16.462,17.213c1.413,1.477,3.368,2.313,5.413,2.313s4-0.836,5.413-2.313l16.462-17.213l16.462,17.213
			c1.413,1.477,3.368,2.313,5.413,2.313s4-0.836,5.413-2.313l16.462-17.213l16.462,17.213c1.413,1.477,3.369,2.313,5.413,2.313
			s4-0.836,5.413-2.313l16.462-17.213l15.436,16.14V85.23c0,4.137,3.353,7.49,7.49,7.49c4.136,0,7.49-3.353,7.49-7.49V31.059
			C417.666,28.312,416.188,25.911,413.985,24.607z"/>
	</g>
</g>
<g>
	<g>
		<path d="M410.176,129.171c-4.137,0-7.49,3.353-7.49,7.49v340.872l-15.436,16.14l-16.462-17.213
			c-1.413-1.478-3.369-2.313-5.413-2.313s-4,0.836-5.413,2.313L343.5,493.673l-16.462-17.213c-1.413-1.478-3.369-2.313-5.413-2.313
			s-4,0.836-5.413,2.313l-16.462,17.213l-16.462-17.213c-1.413-1.478-3.369-2.313-5.413-2.313s-4,0.836-5.413,2.313l-16.461,17.213
			l-16.462-17.213c-1.413-1.478-3.368-2.313-5.413-2.313s-4,0.836-5.413,2.313l-16.462,17.213l-16.462-17.213
			c-1.413-1.478-3.368-2.313-5.413-2.313s-4,0.836-5.413,2.313l-16.462,17.213l-16.462-17.213c-1.413-1.478-3.369-2.313-5.413-2.313
			s-4,0.836-5.413,2.313l-16.462,17.213l-15.436-16.14v-91.208c0-4.137-3.353-7.49-7.49-7.49c-4.136,0-7.49,3.353-7.49,7.49v94.213
			c0,1.929,0.744,3.783,2.077,5.177l22.926,23.973c1.413,1.477,3.369,2.313,5.413,2.313c2.044,0,4-0.836,5.413-2.313l16.462-17.213
			l16.462,17.213c1.413,1.477,3.369,2.313,5.413,2.313c2.045,0,4-0.836,5.413-2.313l16.462-17.213l16.462,17.213
			c1.413,1.477,3.368,2.313,5.413,2.313c2.045,0,4-0.836,5.413-2.313l16.462-17.213l16.462,17.213
			c1.413,1.476,3.368,2.312,5.413,2.312s4-0.836,5.413-2.313l16.462-17.213l16.462,17.213c1.413,1.477,3.369,2.313,5.413,2.313
			s4-0.836,5.413-2.313l16.462-17.213l16.462,17.213c1.413,1.477,3.369,2.313,5.413,2.313c2.045,0,4-0.836,5.413-2.313
			l16.462-17.213l16.462,17.213c1.413,1.477,3.368,2.313,5.413,2.313s4-0.836,5.413-2.313l22.926-23.973
			c1.333-1.394,2.077-3.248,2.077-5.177V136.661C417.666,132.524,414.313,129.171,410.176,129.171z"/>
	</g>
</g>
<g>
	<g>
		<path d="M282.853,171.614H157.134c-4.136,0-7.49,3.353-7.49,7.49c0,4.137,3.353,7.49,7.49,7.49h125.719
			c4.136,0,7.49-3.353,7.49-7.49S286.99,171.614,282.853,171.614z"/>
	</g>
</g>
<g>
	<g>
		<path d="M354.868,171.614h-42.72c-4.136,0-7.49,3.353-7.49,7.49c0,4.137,3.353,7.49,7.49,7.49h42.72c4.136,0,7.49-3.353,7.49-7.49
			S359.004,171.614,354.868,171.614z"/>
	</g>
</g>
<g>
	<g>
		<path d="M282.853,210.062H157.134c-4.136,0-7.49,3.353-7.49,7.49s3.354,7.49,7.49,7.49h125.719c4.136,0,7.49-3.353,7.49-7.49
			S286.99,210.062,282.853,210.062z"/>
	</g>
</g>
<g>
	<g>
		<path d="M354.868,210.062h-42.72c-4.136,0-7.49,3.353-7.49,7.49s3.353,7.49,7.49,7.49h42.72c4.136,0,7.49-3.353,7.49-7.49
			S359.004,210.062,354.868,210.062z"/>
	</g>
</g>
<g>
	<g>
		<path d="M282.853,248.51H157.134c-4.136,0-7.49,3.353-7.49,7.49c0,4.137,3.354,7.49,7.49,7.49h125.719
			c4.136,0,7.49-3.353,7.49-7.49C290.342,251.863,286.99,248.51,282.853,248.51z"/>
	</g>
</g>
<g>
	<g>
		<path d="M354.868,248.51h-42.72c-4.136,0-7.49,3.353-7.49,7.49c0,4.137,3.353,7.49,7.49,7.49h42.72c4.136,0,7.49-3.353,7.49-7.49
			C362.358,251.863,359.004,248.51,354.868,248.51z"/>
	</g>
</g>
<g>
	<g>
		<path d="M282.853,286.958H157.134c-4.136,0-7.49,3.353-7.49,7.49c0,4.137,3.354,7.49,7.49,7.49h125.719
			c4.136,0,7.49-3.353,7.49-7.49C290.342,290.311,286.99,286.958,282.853,286.958z"/>
	</g>
</g>
<g>
	<g>
		<path d="M354.868,286.958h-42.72c-4.136,0-7.49,3.353-7.49,7.49c0,4.137,3.353,7.49,7.49,7.49h42.72c4.136,0,7.49-3.353,7.49-7.49
			C362.358,290.311,359.004,286.958,354.868,286.958z"/>
	</g>
</g>
<g>
	<g>
		<path d="M282.853,325.406H157.134c-4.136,0-7.49,3.353-7.49,7.49c0,4.137,3.354,7.49,7.49,7.49h125.719
			c4.136,0,7.49-3.353,7.49-7.49C290.342,328.759,286.99,325.406,282.853,325.406z"/>
	</g>
</g>
<g>
	<g>
		<path d="M354.868,325.406h-42.72c-4.136,0-7.49,3.353-7.49,7.49c0,4.137,3.353,7.49,7.49,7.49h42.72c4.136,0,7.49-3.353,7.49-7.49
			C362.358,328.759,359.005,325.406,354.868,325.406z"/>
	</g>
</g>
<g>
	<g>
		<path d="M312.591,118.402h-113.18c-4.137,0-7.49,3.353-7.49,7.49c0,4.137,3.353,7.49,7.49,7.49h113.18
			c4.137,0,7.49-3.353,7.49-7.49C320.081,121.755,316.728,118.402,312.591,118.402z"/>
	</g>
</g>
<g>
	<g>
		<path d="M321.367,395.442c-2.595-3.222-7.309-3.733-10.532-1.137l-15.149,12.196l-15.148-12.196c-2.742-2.208-6.653-2.208-9.395,0
			l-15.145,12.196l-15.145-12.196c-2.742-2.208-6.653-2.208-9.396,0L216.312,406.5l-15.145-12.195
			c-3.221-2.594-7.937-2.084-10.531,1.136c-2.595,3.222-2.086,7.937,1.136,10.532l19.842,15.978c2.742,2.208,6.653,2.208,9.396,0
			l15.145-12.195l15.145,12.195c2.743,2.208,6.653,2.208,9.396,0l15.146-12.196l15.148,12.196c1.371,1.104,3.034,1.656,4.697,1.656
			c1.663,0,3.326-0.552,4.697-1.656l19.846-15.978C323.452,403.379,323.961,398.664,321.367,395.442z"/>
	</g>
</g>
<g>
</g>
<g>
</g>
<g>
</g>
<g>
</g>
<g>
</g>
<g>
</g>
<g>
</g>
<g>
</g>
<g>
</g>
<g>
</g>
<g>
</g>
<g>
</g>
<g>
</g>
<g>
</g>
<g>
</g>
</svg>
