<svg viewBox="-75 0 466 466" xmlns="http://www.w3.org/2000/svg"><style>path {fill: rgba(198, 198, 198, 0.9);}</style><path d="m37 401.617188v17.21875c.148438 26.035156 21.25 47.082031 47.285156 47.164062h120c25.914063 0 46.714844-21.246094 46.714844-47.164062v-17.21875c22.066406-4.257813 38.007812-23.574219 38-46.050782v-24.566406h10.285156c9.371094 0 16.714844-7.875 16.714844-17.25v-52.5c0-9.375-7.34375-17.25-16.714844-17.25h-10.285156v-30h10.285156c9.371094 0 16.714844-7.875 16.714844-17.25v-44.5c0-9.375-7.34375-17.25-16.714844-17.25h-10.285156v-18.492188c.007812-22.472656-15.933594-41.792968-38-46.050781v-23.292969c0-25.917968-20.800781-47.164062-46.714844-47.164062h-120c-26.035156.0820312-47.136718 21.128906-47.285156 47.164062v23.300782c-21.644531 4.710937-37.0585938 23.894531-37 46.046875v239.054687c-.0585938 22.152344 15.355469 41.335938 37 46.050782zm262.285156-143.617188c1.652344 0 2.714844 1.601562 2.714844 3.25v52.5c0 1.652344-1.0625 3.25-2.714844 3.25h-10.285156v-59zm0-109c1.652344 0 2.714844 1.601562 2.714844 3.25v44.5c0 1.652344-1.0625 3.25-2.714844 3.25h-10.285156v-51zm-95 303h-120c-18.304687-.074219-33.144531-14.859375-33.285156-33.164062v-15.835938h186v15.835938c.125 18.195312-14.523438 33.042968-32.714844 33.164062zm-120-438h120c18.191406.121094 32.839844 14.96875 32.714844 33.164062v22.835938h-186v-22.835938c.140625-18.304687 14.980469-33.089843 33.285156-33.164062zm190.714844 342c0 18.226562-14.773438 33-33 33h-195c-18.226562 0-33-14.773438-33-33v-239c0-18.226562 14.773438-33 33-33h195c18.226562 0 33 14.773438 33 33zm0 0"/><path d="m143 244c3.867188 0 7-3.132812 7-7v-49c0-3.867188-3.132812-7-7-7s-7 3.132812-7 7v49c0 3.867188 3.132812 7 7 7zm0 0"/><path d="m143 284c3.867188 0 7-3.132812 7-7v-13c0-3.867188-3.132812-7-7-7s-7 3.132812-7 7v13c0 3.867188 3.132812 7 7 7zm0 0"/><path d="m143 318.613281c47.28125 0 85.613281-38.332031 85.609375-85.613281 0-47.28125-38.328125-85.613281-85.609375-85.613281-47.285156 0-85.613281 38.332031-85.613281 85.613281.054687 47.261719 38.351562 85.558594 85.613281 85.613281zm0-157.226562c39.550781 0 71.613281 32.0625 71.609375 71.613281 0 39.550781-32.058594 71.613281-71.609375 71.613281s-71.613281-32.0625-71.613281-71.613281c.046875-39.53125 32.082031-71.566406 71.613281-71.613281zm0 0"/></svg>